HIERARCHY
ROOT Hips
{
	OFFSET 0.000000 0.000000 0.000000
	CHANNELS 6 Xposition Yposition Zposition Zrotation Yrotation Xrotation 
	JOINT LHipJoint
	{
		OFFSET 0.000000 0.000000 0.000000
		CHANNELS 3 Zrotation Yrotation Xrotation
		JOINT LeftUpLeg
		{
			OFFSET 1.363060 -1.794630 0.839290
			CHANNELS 3 Zrotation Yrotation Xrotation
			JOINT LeftLeg
			{
				OFFSET 2.448110 -6.726130 0.000000
				CHANNELS 3 Zrotation Yrotation Xrotation
				JOINT LeftFoot
				{
					OFFSET 2.562200 -7.039590 0.000000
					CHANNELS 3 Zrotation Yrotation Xrotation
					JOINT LeftToeBase
					{
						OFFSET 0.157640 -0.433110 2.322550
						CHANNELS 3 Zrotation Yrotation Xrotation
						End Site
						{
							OFFSET 0.000000 0.000000 0.000000
						}
					}
				}
			}
		}
	}
	JOINT RHipJoint
	{
		OFFSET 0.000000 0.000000 0.000000
		CHANNELS 3 Zrotation Yrotation Xrotation
		JOINT RightUpLeg
		{
			OFFSET -1.305520 -1.794630 0.839290
			CHANNELS 3 Zrotation Yrotation Xrotation
			JOINT RightLeg
			{
				OFFSET -2.542530 -6.985550 0.000000
				CHANNELS 3 Zrotation Yrotation Xrotation
				JOINT RightFoot
				{
					OFFSET -2.568260 -7.056230 0.000000
					CHANNELS 3 Zrotation Yrotation Xrotation
					JOINT RightToeBase
					{
						OFFSET -0.164730 -0.452590 2.363150
						CHANNELS 3 Zrotation Yrotation Xrotation
						End Site
						{
							OFFSET 0.000000 0.000000 0.000000
						}
					}
				}
			}
		}
	}
}
MOTION
Frames: 13
Frame Time: 0.008333
-20.856032 17.001568 -0.906845 125.408293 87.729253 147.950262 -7.881067 1.938325 5.209508 -11.480393 -8.781965 -42.855967 -2.379839 0.290994 25.626252 1.847070 6.967730 -10.932382 -0.186200 0.000000 -28.811700 12.178266 -3.243289 -0.206919 2.902983 -10.991881 -8.792938 0.066860 -1.640095 27.954214 -0.275766 5.188643 23.818797 2.766300 0.000000 -93.658600
-20.704710 16.986568 -0.912970 123.605178 87.681987 145.948399 -7.890955 1.991524 5.075036 -11.805258 -8.396442 -42.442194 -2.363708 0.375000 26.435079 1.839495 7.013351 -10.911309 -0.195400 -0.000000 -28.064100 12.299652 -3.176764 -0.227207 2.571561 -11.224273 -9.451446 -0.091333 -1.727663 30.069286 -0.400898 5.189592 24.889996 2.922500 0.000000 -91.626200
-20.554535 16.975430 -0.919765 121.438637 87.661523 143.582863 -7.895638 2.033540 4.942584 -12.102741 -8.006856 -41.903274 -2.362142 0.426168 27.028671 1.836000 7.028488 -11.056225 -0.232900 -0.000000 -27.453000 12.411558 -3.102490 -0.246465 2.268263 -11.411403 -10.159781 -0.233135 -1.812138 32.223796 -0.533628 4.954888 25.724611 2.931700 -0.000000 -89.129100
-20.404838 16.968165 -0.928025 119.058625 87.682698 141.006180 -7.902940 2.063148 4.816128 -12.345037 -7.613708 -41.258722 -2.370433 0.448465 27.433444 1.835994 7.014079 -11.352350 -0.295700 0.000000 -26.994600 12.504821 -3.027830 -0.262291 2.023463 -11.539751 -10.907642 -0.356739 -1.896426 34.385416 -0.669756 4.427022 26.239880 2.748600 0.000000 -86.330100
-20.255349 16.964801 -0.937652 116.368846 87.739357 138.118070 -7.911881 2.081088 4.697458 -12.532202 -7.232209 -40.505997 -2.385103 0.444109 27.661514 1.841366 6.990389 -11.767225 -0.378500 0.000000 -26.687700 12.581498 -2.955887 -0.277544 1.831730 -11.620602 -11.681689 -0.462878 -1.984315 36.525831 -0.806608 3.587500 26.373723 2.358400 0.000000 -83.497200
-20.105370 16.965330 -0.948889 113.406348 87.832497 134.956640 -7.927014 2.087228 4.588249 -12.654899 -6.863742 -39.659679 -2.401491 0.416879 27.734889 1.852327 6.969887 -12.263164 -0.475300 -0.000000 -26.525000 12.638372 -2.891248 -0.291474 1.705214 -11.653033 -12.474349 -0.553192 -2.078074 38.616969 -0.943228 2.432653 26.085066 1.767100 0.000000 -80.784700
-19.954551 16.969755 -0.961645 110.169922 87.957389 131.521597 -7.951726 2.082079 4.489189 -12.711807 -6.508371 -38.732953 -2.415681 0.370415 27.671917 1.868761 6.965754 -12.797158 -0.579600 -0.000001 -26.491200 12.673965 -2.836923 -0.303537 1.649079 -11.640269 -13.279306 -0.629215 -2.178719 40.631980 -1.079920 0.991600 25.354830 1.010600 -0.000000 -78.293300
-19.802832 16.977989 -0.975776 106.653415 88.107454 127.808531 -7.989211 2.066655 4.399929 -12.705800 -6.161897 -37.740160 -2.424711 0.308392 27.488415 1.889608 6.987010 -13.325972 -0.685200 -0.000000 -26.567000 12.687092 -2.794725 -0.312827 1.665626 -11.586066 -14.091728 -0.691635 -2.285845 42.545445 -1.217726 -0.677892 24.186726 0.150799 0.000000 -76.048400
-19.650046 16.989890 -0.990946 102.839100 88.273937 123.801013 -8.042054 2.042467 4.319023 -12.644547 -5.816808 -36.694148 -2.426965 0.234224 27.195898 1.912906 7.037439 -13.810025 -0.786200 -0.000000 -26.731600 12.676989 -2.765298 -0.318518 1.752579 -11.495690 -14.907452 -0.739901 -2.397945 44.332795 -1.357491 -2.493554 22.605632 -0.733200 0.000000 -74.001901
-19.495791 17.005156 -1.006989 98.754712 88.451673 119.534953 -8.113756 2.011545 4.247754 -12.531903 -5.465725 -35.620492 -2.421366 0.151361 26.808475 1.936066 7.114134 -14.217485 -0.877200 0.000001 -26.965901 12.641524 -2.749387 -0.317209 1.912918 -11.371979 -15.733831 -0.772464 -2.512325 45.976839 -1.498763 -4.358067 20.652777 -1.557600 0.000000 -72.016700
-19.340726 17.023611 -1.023228 94.281013 88.627707 114.878060 -8.204778 1.974890 4.175300 -12.387070 -5.085759 -34.501322 -2.410148 0.061855 26.320338 1.954499 7.204673 -14.523194 -0.953400 0.000001 -27.258800 12.581902 -2.745505 -0.312287 2.127123 -11.221081 -16.540854 -0.787775 -2.626210 47.440120 -1.642253 -6.179428 18.424669 -2.252800 0.000000 -70.220200
-19.184693 17.044682 -1.039534 89.445971 88.798239 109.874079 -8.317588 1.935158 4.107193 -12.212202 -4.677721 -33.374165 -2.393535 -0.031630 25.746390 1.966067 7.299559 -14.715358 -1.011100 -0.000000 -27.596799 12.496140 -2.753629 -0.298608 2.396325 -11.047638 -17.354038 -0.783852 -2.736651 48.725070 -1.782485 -7.854841 15.986060 -2.760700 0.000001 -68.354500
-19.027884 17.067861 -1.055508 84.137222 88.953978 104.407510 -8.453064 1.893485 4.038768 -12.019831 -4.230315 -32.237756 -2.373986 -0.127608 25.086510 1.967419 7.382727 -14.789831 -1.047800 -0.000000 -27.975300 12.384131 -2.772372 -0.276916 2.705143 -10.856707 -18.164858 -0.760141 -2.841004 49.816355 -1.914976 -9.310578 13.450360 -3.059700 0.000000 -66.518900
